<svg id="Layer_1" xmlns="http://www.w3.org/2000/svg" xmlns:xlink="http://www.w3.org/1999/xlink" viewBox="0 0 368 44"><style>.st0{fill:#f3bf9c}.st1{fill:#f9d8c5}.st2{fill:#f9f4f4}.st3{fill:#e5b28f}.st4{fill:#140b13}.st5{fill:#5f8ab4}.st6{fill:#d3030b}.st7{clip-path:url(#SVGID_2_);fill:#e5b28f}.st8{fill:#f9f9f9}.st9{clip-path:url(#SVGID_4_);fill:#e20e0e}.st10{clip-path:url(#SVGID_6_);fill:#86000d}.st11{fill:#fff}</style><path class="st0" d="M36 34c0 5.4-6.7 10-14.9 10s-15-4.7-15-10 6.7-9.7 14.9-9.7 15 4.3 15 9.7z"/><path class="st0" d="M4.6 17.1l-1 13.1 4.9 4.5 4.4 5.8 5.3.9 8.3-1.6 6.2-2.5 4.7-2.6 2-2.5-2.9-4.4 1.4-7.5-2.1-3.2-4.7-3.2-16.6-.5-11.2 2.4z"/><path class="st0" d="M21 43.2c.4 0 .8-.2 1.2-.2 1.4 0 2.7-.5 4.1-.8 2-.5 3.7-1.1 5.3-2.2 1.3-.9 2.4-1.4 3.3-2.7.4-.5.8-.9 1.5-.9 1.5-.1 2.6-.9 3.5-2.1 1.6-2.1 2.1-4.5 1.9-7.1-.1-1.2-.9-2.1-2-2.4-.1 0-.2-.1-.2-.2l-1.2.9v4.6c0 .8-.2 1.5-1 2 .1-.4-.1-.7-.2-.9-.5-1.1-.9-2.2-.8-3.5.3-2 .1-3.9.1-5.9-1-2-2.8-3.4-4.9-4.3-.2-.1-.3 0-.4.2 0 .3.1.7.1 1 0 .3 0 .6-.1 1-.9-1.4-1.9-2.4-3.6-2.4-1.6.1-2.6 1.2-3.8 2.2.2-1.4.6-2.6 1.5-3.6-1.5-.3-2.9-.3-4.4-.3-1.5 0-3 0-4.4.3.8 1 1.3 2.2 1.5 3.6-1.2-1.1-2.2-2.2-3.8-2.2-1.7-.1-2.6 1-3.6 2.4 0-.4-.1-.7-.1-1 0-.3.1-.7.1-1 0-.2-.1-.3-.4-.2-2.1.9-3.8 2.2-4.9 4.3 0 2-.2 4 .1 5.9.2 1.3-.3 2.4-.8 3.5-.1.3-.3.5-.2.9-.9-.5-1-1.2-1-2v-4.6l-1.2-.9-.2.2C.8 25.1.1 26 0 27.2c-.3 2.6.3 5 1.9 7.1.9 1.2 2 2 3.5 2.1.8 0 1.2.4 1.5.9.9 1.3 2 1 3.3 1.9 1.6 1.1 3.3 2.2 5.3 2.6 1.4.3 2.7.8 4.1.8.4 0 .8.3 1.2.3m4.3-20.8c0-.2.1-.2.3-.2.9-1.3 3.3-1.1 4.2.2 1.1 1.6 1.1 3.3.9 5.1-.1 1.1-.6 2.1-1.8 2.4-.5.1-1.2.5-1.6-.4-.3-.4-.8-.7-1-1.2-.6-.4-1.1-.7-1.7-1.1-.5-.1-.7-.4-.7-.8 0-1.4.3-2.8 1.4-4zm-12.7 0c.9-1.4 3.3-1.5 4.2-.2.2 0 .3.1.3.2 1.2 1.2 1.4 2.6 1.3 4.1 0 .4-.2.7-.7.8-.6.4-1.1.7-1.7 1.1-.2.5-.7.8-1 1.2-.3.9-1 .5-1.6.4-1.2-.3-1.7-1.4-1.8-2.4-.1-1.8 0-3.6 1-5.2zm19.2 13.7c-.5 0-.6.1-.8.5-.7 2.1-2.7 2.7-4.4 1.5-1.2 2.2-2.7 2.6-4.9 1.4-.2-.1-.4-.1-.5 0-.1-.1-.3-.2-.5 0-2.2 1.2-3.7.7-4.9-1.4-1.8 1.3-3.8.6-4.4-1.5-.1-.4-.3-.6-.8-.5-1.7.1-3.3-1.7-3.1-3.4.1-1 .6-1.9 1.2-2.7.2-.2.3-.4.6 0 1.1 1.3 2.6 1.9 4.2 2.2.6.1.8.3 1 .9.8 2.6 2.8 3.8 5.3 4.1.6.1 1 .1 1.4.1.4 0 .9 0 1.3-.1 2.5-.3 4.5-1.5 5.3-4.1.2-.6.4-.8 1-.9 1.6-.3 3.1-.9 4.2-2.2.3-.3.4-.2.6 0 .6.8 1.1 1.7 1.2 2.7.3 1.7-1.3 3.5-3 3.4z"/><path class="st1" d="M39.3 30.9c-.2 1-.9 1.7-1.4 1.5-.6-.1-.8-1-.6-2 .2-1 .9-1.7 1.4-1.5.6.1.9 1 .6 2zm-36.5 0c.2 1 .9 1.7 1.4 1.5.6-.1.8-1 .6-2-.2-1-.9-1.7-1.4-1.5s-.9 1-.6 2z"/><path class="st2" d="M13.3 3.5h16.3v8.9H13.3z"/><path class="st3" d="M37.5 26.5s2.3-1.5 3.2 1.4c.2.7.4 2.5.4 2.5s.6-2.6-.3-4c-1.1-1.5-3.3.1-3.3.1zm-32.9 0S2.3 25 1.4 27.9c-.2.7-.4 2.5-.4 2.5s-.6-2.6.3-4c1.1-1.5 3.3.1 3.3.1z"/><path class="st4" d="M15.8 37.7c-1.8 1.3-3.8.7-4.5-1.4-.1-.4-.3-.6-.8-.5-1.7.1-3.4-1.7-3.1-3.4.2-1 .6-1.9 1.3-2.7.2-.2.3-.4.6 0 1.1 1.3 2.6 1.9 4.3 2.2.6.1.9.3 1 .9.8 2.6 2.8 3.8 5.4 4.1 2.6.3 4.9-.3 6.7-2.3.5-.6.9-1.2 1-2 .1-.5.4-.6.8-.7 1.1-.2 2.2-.5 3.1-1.1.5-.3.9-.6 1.2-1.1.3-.4.4-.3.7 0 .4.6.8 1.2 1 1.9.7 2.2-.8 4.1-3.2 4.1-.4 0-.4.2-.5.4-.3 1-.9 1.7-1.9 2.1-.8.3-1.6.3-2.3-.3-.3-.3-.4-.2-.6.1-.9 1.7-2.9 2.2-4.6 1.1-.2-.1-.3-.3-.6-.1-2.2 1.3-3.7.9-5-1.3zm22.7-12.2c-.6-.1-.8-.6-.5-1 .4-.6.2-1.1-.1-1.5-.4-.4-.4-1.2-1.2-1.2 0 2 .2 4-.1 5.9-.2 1.3.3 2.4.8 3.5.1.3.3.5.2.9.9-.5 1-1.2 1-2-.1-1.5-.1-3-.1-4.6zm-34.9 0c.6-.1.8-.6.5-1-.4-.6-.2-1.1.1-1.5.4-.4.4-1.2 1.2-1.2 0 2-.2 4 .1 5.9.2 1.3-.3 2.4-.8 3.5-.1.3-.3.5-.2.9-.9-.5-1-1.2-1-2 .1-1.5.1-3 .1-4.6zm7.1-7.7c.2-.7 1-.8 1.5-.9 1.4-.4 2.9-.6 4.4-.8.8 1 1.3 2.2 1.5 3.6-1.2-1.1-2.2-2.2-3.8-2.2-1.7-.1-2.6 1-3.6 2.4 0-.4-.1-.7-.1-1 0-.4.1-.8.1-1.1zm20.7 0c-.2-.7-1-.8-1.5-.9-1.4-.4-2.9-.6-4.4-.8-.8 1-1.3 2.2-1.5 3.6 1.2-1.1 2.2-2.2 3.8-2.2 1.7-.1 2.6 1 3.6 2.4 0-.4.1-.7.1-1 0-.4-.1-.8-.1-1.1z"/><path class="st0" d="M9.8 20.3h21.7V30H9.8z"/><path class="st2" d="M25.1 22c1.2-1.5 3.3-1.4 4.4.1 1.1 1.4 1.3 5.1.3 6.6-.5.8-1.7 1.2-2.5 1-.2-.1-.3-.2-.3-.4 1.5-1 2.1-3.1 1.5-5.3-.5-1.6-1.6-2.3-3.4-2z"/><path class="st5" d="M25.1 22c1.8-.3 2.9.3 3.4 2.1.6 2.2 0 4.3-1.5 5.3-.4-.3-.7-.7-.9-1.1 1.4-.6 1.9-2.5 1.1-3.9-.3-.5-.6-.9-1.3-.9-.6 0-1 .4-1.3.9-.5.9-.3 1.8-.2 2.7-.2-.1-.6-.1-.6-.4-.1-1.6-.3-3.2 1.1-4.5.1 0 .2-.1.2-.2z"/><path class="st4" d="M24.5 27.1c-.1-.9-.3-1.8.2-2.7.3-.5.6-.9 1.3-.9.6 0 1 .4 1.3.9.8 1.4.3 3.3-1.1 3.9-.7-.4-1.2-.8-1.7-1.2zm2-2.5c0-.3-.2-.5-.5-.5s-.6.1-.6.5.2.6.6.6c.3-.1.5-.2.5-.6z"/><path class="st2" d="M26.5 24.6c0 .4-.2.5-.5.5s-.6-.2-.6-.6c0-.3.3-.5.6-.5.3.1.5.3.5.6zM16.9 22c-1.2-1.5-3.3-1.4-4.4.1-1.1 1.4-1.3 5.1-.3 6.6.5.8 1.7 1.2 2.5 1 .2-.1.3-.2.3-.4-1.5-1-2.1-3.1-1.5-5.3.5-1.6 1.6-2.3 3.4-2z"/><path class="st5" d="M16.9 22c-1.8-.3-2.9.3-3.4 2.1-.6 2.2 0 4.3 1.5 5.3.4-.3.7-.7.9-1.1-1.4-.6-1.9-2.5-1.1-3.9.3-.5.6-.9 1.3-.9.6 0 1 .4 1.3.9.5.9.3 1.8.2 2.7.2-.1.6-.1.6-.4.1-1.6.3-3.2-1.1-4.5-.1 0-.1-.1-.2-.2z"/><path class="st4" d="M16 28.3c-1.4-.6-1.9-2.5-1.1-3.9.3-.5.6-.9 1.3-.9.6 0 1 .4 1.3.9.5.9.3 1.8.2 2.7-.6.4-1.2.8-1.7 1.2zm.1-3.2c.3 0 .6-.2.6-.6 0-.3-.3-.5-.6-.5s-.5.2-.5.5c-.1.5.2.6.5.6z"/><path class="st2" d="M15.5 24.6c0 .4.2.5.5.5s.6-.2.6-.6c0-.3-.3-.5-.6-.5-.3.1-.5.3-.5.6z"/><path class="st6" d="M36.3 23.8h-.1z"/><path class="st2" d="M22.6 4.2c1.5.3 2.9.9 3.8 2.1 1.4 1.7 1.1 4-.6 5.4-.5.4-1 .2-1.5.2-.1-.1-.3-.1-.4-.1-1.9-.2-3.8-.1-5.8.1-.7.1-1.5.4-1.8-.6-.1-.3-.8-.2-.8-.7-.1-.8-.5-1.5-.3-2.4.3-1.4 1.3-2.3 2.5-2.9.3-.1.6-.2.5-.6.2.2.6.2.5.6-.7 1.2-1.3 2.4-2 3.6-.7 1.1-.7 1.1.5 1.9.5.3.7.2.8-.3.3-1.1.7-2.1 1.1-3.3.6.6 1 1.1 1.5 1.6.2.2.3.3.5 0 .5-.5 1-1 1.5-1.6.5 1.4.9 2.7 1.4 4 .5-.4 1-.7 1.5-1 .4-.2.4-.5.1-.8l-2.4-4.2c-.1-.3-.2-.2-.4 0-.5.4-.9.8-1.4 1.2-.3.3-.6.4-.9 0-.5-.5-1-.9-1.5-1.4 0-.6.6-.5.9-.5.9-.1 1.8.1 2.7-.3zm2.5 1.3z"/><path class="st0" d="M25.1 5.5H25z"/><ellipse class="st0" cx="21" cy="31.7" rx="6.7" ry="5.3"/><defs><ellipse id="SVGID_1_" cx="21" cy="31.7" rx="6.7" ry="5.3"/></defs><clipPath id="SVGID_2_"><use xlink:href="#SVGID_1_" overflow="visible"/></clipPath><path class="st7" d="M16.9 36s4.1.7 7.2-1.4c3.1-2.1 3.1-5.4 3.1-5.4l1.7 4.5-1.1 4.3-5.9 1-5-3z"/><path class="st1" d="M19.9 28.3c.2.6-.3 1.3-1.1 1.6s-1.7.2-2-.4.3-1.3 1.1-1.6c.9-.3 1.8-.1 2 .4z"/><path class="st6" d="M41.1 18.3c-1.5-6.5-5-11.7-10.6-15.4C27.6 1 24.4 0 21 0c-3.4 0-6.6 1-9.4 2.9C6 6.6 2.5 11.8 1 18.3c-.5 2.3-.2 4.5 1.4 6.4l1.2.9c.6-.1.8-.6.5-1-.4-.6-.2-1.1.1-1.5.4-.4.4-1.2 1.2-1.2 1-2 2.8-3.4 4.9-4.3.2-.1.3 0 .4.2.2-.7 1-.8 1.5-.9 1.4-.4 2.9-.6 4.4-.8 1.5-.3 2.9-.3 4.4-.3 1.5 0 3 0 4.4.3 1.5.1 3 .4 4.4.8.5.1 1.2.3 1.5.9 0-.2.1-.3.4-.2 2.1.9 3.8 2.2 4.9 4.3.9-.1.9.7 1.2 1.2.4.4.5.9.1 1.5-.3.4-.1.9.5 1l1.2-.9c1.7-1.9 2-4.1 1.5-6.4zm-14.5-7.2c-.7.9-1.5 1.2-2.6.8h-.2c-.9-.1-1.8-.1-2.8-.1-.9 0-1.8 0-2.8.1H18c-1.1.3-1.9.1-2.6-.8-.7-1-1.1-2-.8-3.3.6-1.8 1.9-2.8 3.6-3.3 1-.4 1.9-.6 2.8-.5 1 0 1.9.1 2.8.5 1.7.5 3 1.5 3.5 3.3.4 1.2 0 2.3-.7 3.3z"/><ellipse class="st8" cx="21" cy="8.7" rx="6.5" ry="4.7"/><defs><path id="SVGID_3_" d="M41.1 18.3c-1.5-6.5-5-11.7-10.6-15.4C27.6 1 24.4 0 21 0c-3.4 0-6.6 1-9.4 2.9C6 6.6 2.5 11.8 1 18.3c-.5 2.3-.2 4.5 1.4 6.4l1.2.9c.6-.1.8-.6.5-1-.4-.6-.2-1.1.1-1.5.4-.4.4-1.2 1.2-1.2 1-2 2.8-3.4 4.9-4.3.2-.1.3 0 .4.2.2-.7 1-.8 1.5-.9 1.4-.4 2.9-.6 4.4-.8 1.5-.3 2.9-.3 4.4-.3 1.5 0 3 0 4.4.3 1.5.1 3 .4 4.4.8.5.1 1.2.3 1.5.9 0-.2.1-.3.4-.2 2.1.9 3.8 2.2 4.9 4.3.9-.1.9.7 1.2 1.2.4.4.5.9.1 1.5-.3.4-.1.9.5 1l1.2-.9c1.7-1.9 2-4.1 1.5-6.4zm-14.5-7.2c-.7.9-1.5.6-2.6.2h-.2c-.9-.1-1.8 0-2.8 0-.9 0-1.8 0-2.8.1H18c-1.1.3-1.9.5-2.6-.4-.7-1-1.1-2-.8-3.3.6-1.7 1.9-2.7 3.6-3.2 1-.4 1.9-.6 2.8-.5 1 0 1.9.1 2.8.5 1.7.5 3 1.5 3.5 3.3.4 1.2 0 2.3-.7 3.3z"/></defs><clipPath id="SVGID_4_"><use xlink:href="#SVGID_3_" overflow="visible"/></clipPath><path class="st9" d="M1.5 26.1s-.3-14.6 19.6-14.6 19.5 14.6 19.5 14.6"/><defs><path id="SVGID_5_" d="M41.1 18.3c-1.5-6.5-5-11.7-10.6-15.4C27.6 1 24.4 0 21 0c-3.4 0-6.6 1-9.4 2.9C6 6.6 2.5 11.8 1 18.3c-.5 2.3-.2 4.5 1.4 6.4l1.2.9c.6-.1.8-.6.5-1-.4-.6-.2-1.1.1-1.5.4-.4.4-1.2 1.2-1.2 1-2 2.8-3.4 4.9-4.3.2-.1.3 0 .4.2.2-.7 1-.8 1.5-.9 1.4-.4 2.9-.6 4.4-.8 1.5-.3 2.9-.3 4.4-.3 1.5 0 3 0 4.4.3 1.5.1 3 .4 4.4.8.5.1 1.2.3 1.5.9 0-.2.1-.3.4-.2 2.1.9 3.8 2.2 4.9 4.3.9-.1.9.7 1.2 1.2.4.4.5.9.1 1.5-.3.4-.1.9.5 1l1.2-.9c1.7-1.9 2-4.1 1.5-6.4zm-14.5-7.2c-.7.9-1.5 1.2-2.6.8h-.2c-.9-.1-1.8-.1-2.8-.1-.9 0-1.8 0-2.8.1H18c-1.1.3-1.9.1-2.6-.8-.7-1-1.1-2-.8-3.3.6-1.8 1.9-2.8 3.6-3.3 1-.4 1.9-.6 2.8-.5 1 0 1.9.1 2.8.5 1.7.5 3 1.5 3.5 3.3.4 1.2 0 2.3-.7 3.3z"/></defs><clipPath id="SVGID_6_"><use xlink:href="#SVGID_5_" overflow="visible"/></clipPath><path class="st10" d="M3 25.5s-.3-11.6 18-11.6 18 11.6 18 11.6"/><path class="st6" d="M25.8 9.4C25 8 24.2 6.7 23.4 5.2c-.2-.4-.3-.3-.5-.1-.5.4-1 .8-1.4 1.2-.1.1-.3.2-.4.2-.1 0-.2-.1-.4-.2-.5-.4-.9-.8-1.4-1.2-.3-.1-.4-.2-.6.1l-2.4 4.2c-.3.4-.3.6.1.8.5.3 1 .6 1.5 1 .5-1.3.9-2.6 1.4-4 .6.6 1.1 1.1 1.5 1.6l.2.2c.1 0 .1-.1.2-.2.5-.5 1-1 1.5-1.6.5 1.4.9 2.7 1.4 4 .5-.4 1-.7 1.5-1 .5-.2.4-.4.2-.8z"/><path class="st11" d="M72 16h-2v2h-3v-2h-2v-3h-5v18h5v-7h2v2h3v-2h2v7h5V13h-5zm22 0h-3v-3h-7v3h-3v2h-2v13h5v-5h7v5h5V18h-2v-2zm-3 7h-7v-5h2v-2h3v2h2v5zm22-10H98v18h5v-5h3v2h2v3h7v-3h-2v-2h-3v-3h5v-8h-2v-2zm-5 8v2h-5v-7h7v5h-2zm9-5h5v12h-5v3h15v-3h-5V16h5v-3h-15zm32-3h-13v3h-2v12h3v3h12v-3h2V16h-2v-3zm-3 15h-7V16h7v12zm17-12h-3v2h-2v8h2v2h3v3h12V20h-7v3h2v5h-4v-2h-3v-8h2v-2h10v-3h-12zm29 0h-3v-3h-7v3h-3v2h-2v13h5v-5h7v5h5V18h-2v-2zm-3 7h-7v-5h2v-2h3v2h2v5zm19-7h-2v2h-3v-2h-2v-3h-5v18h5v-7h2v2h3v-2h2v7h5V13h-5zm7 15h18v-3h-13v-5h8v-3h-8v-4h13v-3h-18zm34-18h-12v2h-2v5h2v3h10v5h-7v-3h-5v3h3v3h12v-3h2v-6h-2v-2h-10v-4h7v2h5v-3h-3zm25 0h-13v3h-2v12h3v3h12v-3h2V16h-2v-3zm-3 15h-7V16h7v12zm19-8h-2v-2h-3v-2h-2v-3h-5v18h5v-7h2v2h3v2h2v3h5V13h-5zm12-7h-5v18h15v-3h-10zm12 3h5v12h-5v3h15v-3h-5V16h5v-3h-15zm29 4h-2v-2h-3v-2h-2v-3h-5v18h5v-7h2v2h3v2h2v3h5V13h-5zm25-4v-3h-18v18h18v-3h-13v-5h8v-3h-8v-4z"/></svg>