<?xml version="1.0" encoding="utf-8"?>
<!-- Generator: Adobe Illustrator 21.0.0, SVG Export Plug-In . SVG Version: 6.00 Build 0)  -->
<svg version="1.1" id="Layer_1" xmlns="http://www.w3.org/2000/svg" xmlns:xlink="http://www.w3.org/1999/xlink" x="0px" y="0px"
	 viewBox="0 0 368 44" style="enable-background:new 0 0 368 44;" xml:space="preserve">
<style type="text/css">
	.st0{fill:#F3BF9C;}
	.st1{fill:#F9D8C5;}
	.st2{fill:#F9F4F4;}
	.st3{fill:#E5B28F;}
	.st4{fill:#140B13;}
	.st5{fill:#5F8AB4;}
	.st6{fill:#D3030B;}
	.st7{clip-path:url(#SVGID_2_);fill:#E5B28F;}
	.st8{fill:#F9F9F9;}
	.st9{clip-path:url(#SVGID_4_);fill:#E20E0E;}
	.st10{clip-path:url(#SVGID_6_);fill:#86000D;}
	.st11{fill:#FFFFFF;}
</style>
<g>
	<g>
		<path class="st0" d="M36,34c0,5.4-6.7,10-14.9,10S6.1,39.3,6.1,34s6.7-9.7,14.9-9.7S36,28.6,36,34z"/>
		<polygon class="st0" points="4.6,17.1 3.6,30.2 8.5,34.7 12.9,40.5 18.2,41.4 26.5,39.8 32.7,37.3 37.4,34.7 39.4,32.2 36.5,27.8 
			37.9,20.3 35.8,17.1 31.1,13.9 14.5,13.4 3.3,15.8 		"/>
		<path class="st0" d="M21,43.2c0.4,0,0.8-0.2,1.2-0.2c1.4,0,2.7-0.5,4.1-0.8c2-0.5,3.7-1.1,5.3-2.2c1.3-0.9,2.4-1.4,3.3-2.7
			c0.4-0.5,0.8-0.9,1.5-0.9c1.5-0.1,2.6-0.9,3.5-2.1c1.6-2.1,2.1-4.5,1.9-7.1c-0.1-1.2-0.9-2.1-2-2.4c-0.1,0-0.2-0.1-0.2-0.2
			c-0.4,0.3-0.8,0.6-1.2,0.9c0,1.5,0,3.1,0,4.6c0,0.8-0.2,1.5-1,2c0.1-0.4-0.1-0.7-0.2-0.9c-0.5-1.1-0.9-2.2-0.8-3.5
			c0.3-2,0.1-3.9,0.1-5.9c-1-2-2.8-3.4-4.9-4.3c-0.2-0.1-0.3,0-0.4,0.2c0,0.3,0.1,0.7,0.1,1c0,0.3,0,0.6-0.1,1
			c-0.9-1.4-1.9-2.4-3.6-2.4c-1.6,0.1-2.6,1.2-3.8,2.2c0.2-1.4,0.6-2.6,1.5-3.6c-1.5-0.3-2.9-0.3-4.4-0.3c-1.5,0-3,0-4.4,0.3
			c0.8,1,1.3,2.2,1.5,3.6c-1.2-1.1-2.2-2.2-3.8-2.2c-1.7-0.1-2.6,1-3.6,2.4c0-0.4-0.1-0.7-0.1-1c0-0.3,0.1-0.7,0.1-1
			c0-0.2-0.1-0.3-0.4-0.2c-2.1,0.9-3.8,2.2-4.9,4.3c0,2-0.2,4,0.1,5.9c0.2,1.3-0.3,2.4-0.8,3.5c-0.1,0.3-0.3,0.5-0.2,0.9
			c-0.9-0.5-1-1.2-1-2c0-1.5,0-3.1,0-4.6c-0.4-0.3-0.8-0.6-1.2-0.9c-0.1,0.1-0.2,0.2-0.2,0.2c-1.2,0.3-1.9,1.2-2,2.4
			c-0.3,2.6,0.3,5,1.9,7.1c0.9,1.2,2,2,3.5,2.1c0.8,0,1.2,0.4,1.5,0.9c0.9,1.3,2,1,3.3,1.9c1.6,1.1,3.3,2.2,5.3,2.6
			c1.4,0.3,2.7,0.8,4.1,0.8c0.4,0,0.8,0.3,1.2,0.3 M25.1,22.1c0-0.2,0.1-0.2,0.3-0.2l0,0c0.9-1.3,3.3-1.1,4.2,0.2
			c1.1,1.6,1.1,3.3,0.9,5.1c-0.1,1.1-0.6,2.1-1.8,2.4c-0.5,0.1-1.2,0.5-1.6-0.4c-0.3-0.4-0.8-0.7-1-1.2c-0.6-0.4-1.1-0.7-1.7-1.1
			c-0.5-0.1-0.7-0.4-0.7-0.8C23.7,24.7,24,23.3,25.1,22.1z M12.4,22.1c0.9-1.4,3.3-1.5,4.2-0.2l0,0c0.2,0,0.3,0.1,0.3,0.2
			c1.2,1.2,1.4,2.6,1.3,4.1c0,0.4-0.2,0.7-0.7,0.8c-0.6,0.4-1.1,0.7-1.7,1.1c-0.2,0.5-0.7,0.8-1,1.2c-0.3,0.9-1,0.5-1.6,0.4
			c-1.2-0.3-1.7-1.4-1.8-2.4C11.3,25.5,11.4,23.7,12.4,22.1z M31.6,35.8c-0.5,0-0.6,0.1-0.8,0.5c-0.7,2.1-2.7,2.7-4.4,1.5
			c-1.2,2.2-2.7,2.6-4.9,1.4c-0.2-0.1-0.4-0.1-0.5,0c-0.1-0.1-0.3-0.2-0.5,0c-2.2,1.2-3.7,0.7-4.9-1.4c-1.8,1.3-3.8,0.6-4.4-1.5
			c-0.1-0.4-0.3-0.6-0.8-0.5c-1.7,0.1-3.3-1.7-3.1-3.4c0.1-1,0.6-1.9,1.2-2.7c0.2-0.2,0.3-0.4,0.6,0c1.1,1.3,2.6,1.9,4.2,2.2
			c0.6,0.1,0.8,0.3,1,0.9c0.8,2.6,2.8,3.8,5.3,4.1C20.2,37,20.6,37,21,37v0c0,0,0,0,0,0c0,0,0,0,0,0v0c0.4,0,0.9,0,1.3-0.1
			c2.5-0.3,4.5-1.5,5.3-4.1c0.2-0.6,0.4-0.8,1-0.9c1.6-0.3,3.1-0.9,4.2-2.2c0.3-0.3,0.4-0.2,0.6,0c0.6,0.8,1.1,1.7,1.2,2.7
			C34.9,34.1,33.3,35.9,31.6,35.8z"/>
		<g>
			<path class="st1" d="M39.3,30.9c-0.2,1-0.9,1.7-1.4,1.5c-0.6-0.1-0.8-1-0.6-2c0.2-1,0.9-1.7,1.4-1.5C39.3,29,39.6,29.9,39.3,30.9
				z"/>
			<path class="st1" d="M2.8,30.9c0.2,1,0.9,1.7,1.4,1.5c0.6-0.1,0.8-1,0.6-2c-0.2-1-0.9-1.7-1.4-1.5S2.5,29.9,2.8,30.9z"/>
			<rect x="13.3" y="3.5" class="st2" width="16.3" height="8.9"/>
			<path class="st3" d="M37.5,26.5c0,0,2.3-1.5,3.2,1.4c0.2,0.7,0.4,2.5,0.4,2.5s0.6-2.6-0.3-4C39.7,24.9,37.5,26.5,37.5,26.5z"/>
			<path class="st3" d="M4.6,26.5c0,0-2.3-1.5-3.2,1.4c-0.2,0.7-0.4,2.5-0.4,2.5s-0.6-2.6,0.3-4C2.4,24.9,4.6,26.5,4.6,26.5z"/>
			<path class="st4" d="M15.8,37.7C14,39,12,38.4,11.3,36.3c-0.1-0.4-0.3-0.6-0.8-0.5c-1.7,0.1-3.4-1.7-3.1-3.4
				c0.2-1,0.6-1.9,1.3-2.7c0.2-0.2,0.3-0.4,0.6,0c1.1,1.3,2.6,1.9,4.3,2.2c0.6,0.1,0.9,0.3,1,0.9c0.8,2.6,2.8,3.8,5.4,4.1
				c2.6,0.3,4.9-0.3,6.7-2.3c0.5-0.6,0.9-1.2,1-2c0.1-0.5,0.4-0.6,0.8-0.7c1.1-0.2,2.2-0.5,3.1-1.1c0.5-0.3,0.9-0.6,1.2-1.1
				c0.3-0.4,0.4-0.3,0.7,0c0.4,0.6,0.8,1.2,1,1.9c0.7,2.2-0.8,4.1-3.2,4.1c-0.4,0-0.4,0.2-0.5,0.4c-0.3,1-0.9,1.7-1.9,2.1
				c-0.8,0.3-1.6,0.3-2.3-0.3c-0.3-0.3-0.4-0.2-0.6,0.1c-0.9,1.7-2.9,2.2-4.6,1.1c-0.2-0.1-0.3-0.3-0.6-0.1
				C18.6,40.3,17.1,39.9,15.8,37.7z"/>
			<path class="st4" d="M38.5,25.5c-0.6-0.1-0.8-0.6-0.5-1c0.4-0.6,0.2-1.1-0.1-1.5c-0.4-0.4-0.4-1.2-1.2-1.2c0,2,0.2,4-0.1,5.9
				c-0.2,1.3,0.3,2.4,0.8,3.5c0.1,0.3,0.3,0.5,0.2,0.9c0.9-0.5,1-1.2,1-2C38.5,28.6,38.5,27.1,38.5,25.5z"/>
			<path class="st4" d="M3.6,25.5c0.6-0.1,0.8-0.6,0.5-1c-0.4-0.6-0.2-1.1,0.1-1.5c0.4-0.4,0.4-1.2,1.2-1.2c0,2-0.2,4,0.1,5.9
				c0.2,1.3-0.3,2.4-0.8,3.5c-0.1,0.3-0.3,0.5-0.2,0.9c-0.9-0.5-1-1.2-1-2C3.6,28.6,3.6,27.1,3.6,25.5z"/>
			<path class="st4" d="M10.7,17.8c0.2-0.7,1-0.8,1.5-0.9c1.4-0.4,2.9-0.6,4.4-0.8c0.8,1,1.3,2.2,1.5,3.6c-1.2-1.1-2.2-2.2-3.8-2.2
				c-1.7-0.1-2.6,1-3.6,2.4c0-0.4-0.1-0.7-0.1-1C10.6,18.5,10.7,18.1,10.7,17.8z"/>
			<path class="st4" d="M31.4,17.8c-0.2-0.7-1-0.8-1.5-0.9c-1.4-0.4-2.9-0.6-4.4-0.8c-0.8,1-1.3,2.2-1.5,3.6
				c1.2-1.1,2.2-2.2,3.8-2.2c1.7-0.1,2.6,1,3.6,2.4c0-0.4,0.1-0.7,0.1-1C31.5,18.5,31.4,18.1,31.4,17.8z"/>
			<rect x="9.8" y="20.3" class="st0" width="21.7" height="9.7"/>
			<g>
				<path class="st2" d="M25.1,22c1.2-1.5,3.3-1.4,4.4,0.1c1.1,1.4,1.3,5.1,0.3,6.6c-0.5,0.8-1.7,1.2-2.5,1
					c-0.2-0.1-0.3-0.2-0.3-0.4c1.5-1,2.1-3.1,1.5-5.3C28,22.4,26.9,21.7,25.1,22z"/>
				<path class="st5" d="M25.1,22c1.8-0.3,2.9,0.3,3.4,2.1c0.6,2.2,0,4.3-1.5,5.3c-0.4-0.3-0.7-0.7-0.9-1.1c1.4-0.6,1.9-2.5,1.1-3.9
					c-0.3-0.5-0.6-0.9-1.3-0.9c-0.6,0-1,0.4-1.3,0.9c-0.5,0.9-0.3,1.8-0.2,2.7c-0.2-0.1-0.6-0.1-0.6-0.4c-0.1-1.6-0.3-3.2,1.1-4.5
					C25,22.2,25.1,22.1,25.1,22L25.1,22z"/>
				<path class="st4" d="M24.5,27.1c-0.1-0.9-0.3-1.8,0.2-2.7c0.3-0.5,0.6-0.9,1.3-0.9c0.6,0,1,0.4,1.3,0.9c0.8,1.4,0.3,3.3-1.1,3.9
					C25.5,27.9,25,27.5,24.5,27.1z M26.5,24.6c0-0.3-0.2-0.5-0.5-0.5c-0.3,0-0.6,0.1-0.6,0.5c0,0.4,0.2,0.6,0.6,0.6
					C26.3,25.1,26.5,25,26.5,24.6z"/>
				<path class="st2" d="M26.5,24.6c0,0.4-0.2,0.5-0.5,0.5c-0.3,0-0.6-0.2-0.6-0.6c0-0.3,0.3-0.5,0.6-0.5
					C26.3,24.1,26.5,24.3,26.5,24.6z"/>
			</g>
			<g>
				<path class="st2" d="M16.9,22c-1.2-1.5-3.3-1.4-4.4,0.1c-1.1,1.4-1.3,5.1-0.3,6.6c0.5,0.8,1.7,1.2,2.5,1
					c0.2-0.1,0.3-0.2,0.3-0.4c-1.5-1-2.1-3.1-1.5-5.3C14,22.4,15.1,21.7,16.9,22z"/>
				<path class="st5" d="M16.9,22c-1.8-0.3-2.9,0.3-3.4,2.1c-0.6,2.2,0,4.3,1.5,5.3c0.4-0.3,0.7-0.7,0.9-1.1
					c-1.4-0.6-1.9-2.5-1.1-3.9c0.3-0.5,0.6-0.9,1.3-0.9c0.6,0,1,0.4,1.3,0.9c0.5,0.9,0.3,1.8,0.2,2.7c0.2-0.1,0.6-0.1,0.6-0.4
					c0.1-1.6,0.3-3.2-1.1-4.5C17,22.2,17,22.1,16.9,22L16.9,22z"/>
				<path class="st4" d="M16,28.3c-1.4-0.6-1.9-2.5-1.1-3.9c0.3-0.5,0.6-0.9,1.3-0.9c0.6,0,1,0.4,1.3,0.9c0.5,0.9,0.3,1.8,0.2,2.7
					C17.1,27.5,16.5,27.9,16,28.3z M16.1,25.1c0.3,0,0.6-0.2,0.6-0.6c0-0.3-0.3-0.5-0.6-0.5c-0.3,0-0.5,0.2-0.5,0.5
					C15.5,25,15.8,25.1,16.1,25.1z"/>
				<path class="st2" d="M15.5,24.6c0,0.4,0.2,0.5,0.5,0.5c0.3,0,0.6-0.2,0.6-0.6c0-0.3-0.3-0.5-0.6-0.5
					C15.7,24.1,15.5,24.3,15.5,24.6z"/>
			</g>
			<polygon class="st6" points="36.3,23.8 36.3,23.8 36.2,23.8 			"/>
			<path class="st2" d="M22.6,4.2c1.5,0.3,2.9,0.9,3.8,2.1c1.4,1.7,1.1,4-0.6,5.4c-0.5,0.4-1,0.2-1.5,0.2c-0.1-0.1-0.3-0.1-0.4-0.1
				c-1.9-0.2-3.8-0.1-5.8,0.1c-0.7,0.1-1.5,0.4-1.8-0.6c-0.1-0.3-0.8-0.2-0.8-0.7c-0.1-0.8-0.5-1.5-0.3-2.4c0.3-1.4,1.3-2.3,2.5-2.9
				c0.3-0.1,0.6-0.2,0.5-0.6c0,0,0,0,0,0c0.2,0.2,0.6,0.2,0.5,0.6c-0.7,1.2-1.3,2.4-2,3.6C16,10,16,10,17.2,10.8
				c0.5,0.3,0.7,0.2,0.8-0.3c0.3-1.1,0.7-2.1,1.1-3.3c0.6,0.6,1,1.1,1.5,1.6c0.2,0.2,0.3,0.3,0.5,0c0.5-0.5,1-1,1.5-1.6
				c0.5,1.4,0.9,2.7,1.4,4c0.5-0.4,1-0.7,1.5-1c0.4-0.2,0.4-0.5,0.1-0.8c-0.8-1.4-1.6-2.8-2.4-4.2C23.1,4.9,23,5,22.8,5.2
				c-0.5,0.4-0.9,0.8-1.4,1.2c-0.3,0.3-0.6,0.4-0.9,0C20,5.9,19.5,5.5,19,5c0-0.6,0.6-0.5,0.9-0.5C20.8,4.4,21.7,4.6,22.6,4.2z
				 M25.1,5.5L25.1,5.5L25.1,5.5L25.1,5.5z"/>
			<polygon class="st0" points="25.1,5.5 25.1,5.5 25,5.5 			"/>
		</g>
		<ellipse class="st0" cx="21" cy="31.7" rx="6.7" ry="5.3"/>
		<g>
			<defs>
				<ellipse id="SVGID_1_" cx="21" cy="31.7" rx="6.7" ry="5.3"/>
			</defs>
			<clipPath id="SVGID_2_">
				<use xlink:href="#SVGID_1_"  style="overflow:visible;"/>
			</clipPath>
			<path class="st7" d="M16.9,36c0,0,4.1,0.7,7.2-1.4c3.1-2.1,3.1-5.4,3.1-5.4l1.7,4.5l-1.1,4.3L21.9,39L16.9,36z"/>
		</g>
	</g>
	<path class="st1" d="M19.9,28.3c0.2,0.6-0.3,1.3-1.1,1.6s-1.7,0.2-2-0.4s0.3-1.3,1.1-1.6C18.8,27.6,19.7,27.8,19.9,28.3z"/>
	<path class="st6" d="M41.1,18.3c-1.5-6.5-5-11.7-10.6-15.4C27.6,1,24.4,0,21,0c-3.4,0-6.6,1-9.4,2.9C6,6.6,2.5,11.8,1,18.3
		c-0.5,2.3-0.2,4.5,1.4,6.4c0.4,0.3,0.8,0.6,1.2,0.9c0.6-0.1,0.8-0.6,0.5-1c-0.4-0.6-0.2-1.1,0.1-1.5c0.4-0.4,0.4-1.2,1.2-1.2
		c1-2,2.8-3.4,4.9-4.3c0.2-0.1,0.3,0,0.4,0.2c0.2-0.7,1-0.8,1.5-0.9c1.4-0.4,2.9-0.6,4.4-0.8c1.5-0.3,2.9-0.3,4.4-0.3
		c1.5,0,3,0,4.4,0.3c1.5,0.1,3,0.4,4.4,0.8c0.5,0.1,1.2,0.3,1.5,0.9c0-0.2,0.1-0.3,0.4-0.2c2.1,0.9,3.8,2.2,4.9,4.3
		c0.9-0.1,0.9,0.7,1.2,1.2c0.4,0.4,0.5,0.9,0.1,1.5c-0.3,0.4-0.1,0.9,0.5,1c0.4-0.3,0.8-0.6,1.2-0.9C41.3,22.8,41.6,20.6,41.1,18.3z
		 M26.6,11.1c-0.7,0.9-1.5,1.2-2.6,0.8c-0.1,0-0.2,0-0.2,0c-0.9-0.1-1.8-0.1-2.8-0.1c-0.9,0-1.8,0-2.8,0.1c-0.1,0-0.2,0-0.2,0
		c-1.1,0.3-1.9,0.1-2.6-0.8c-0.7-1-1.1-2-0.8-3.3C15.2,6,16.5,5,18.2,4.5l0,0C19.2,4.1,20.1,3.9,21,4c1,0,1.9,0.1,2.8,0.5l0,0
		c1.7,0.5,3,1.5,3.5,3.3C27.7,9,27.3,10.1,26.6,11.1z"/>
	<ellipse class="st8" cx="21" cy="8.7" rx="6.5" ry="4.7"/>
	<g>
		<defs>
			<path id="SVGID_3_" d="M41.1,18.3c-1.5-6.5-5-11.7-10.6-15.4C27.6,1,24.4,0,21,0c-3.4,0-6.6,1-9.4,2.9C6,6.6,2.5,11.8,1,18.3
				c-0.5,2.3-0.2,4.5,1.4,6.4c0.4,0.3,0.8,0.6,1.2,0.9c0.6-0.1,0.8-0.6,0.5-1c-0.4-0.6-0.2-1.1,0.1-1.5c0.4-0.4,0.4-1.2,1.2-1.2
				c1-2,2.8-3.4,4.9-4.3c0.2-0.1,0.3,0,0.4,0.2c0.2-0.7,1-0.8,1.5-0.9c1.4-0.4,2.9-0.6,4.4-0.8c1.5-0.3,2.9-0.3,4.4-0.3
				c1.5,0,3,0,4.4,0.3c1.5,0.1,3,0.4,4.4,0.8c0.5,0.1,1.2,0.3,1.5,0.9c0-0.2,0.1-0.3,0.4-0.2c2.1,0.9,3.8,2.2,4.9,4.3
				c0.9-0.1,0.9,0.7,1.2,1.2c0.4,0.4,0.5,0.9,0.1,1.5c-0.3,0.4-0.1,0.9,0.5,1c0.4-0.3,0.8-0.6,1.2-0.9
				C41.3,22.8,41.6,20.6,41.1,18.3z M26.6,11.1c-0.7,0.9-1.5,0.6-2.6,0.2c-0.1,0-0.2,0-0.2,0c-0.9-0.1-1.8,0-2.8,0
				c-0.9,0-1.8,0-2.8,0.1c-0.1,0-0.2,0-0.2,0c-1.1,0.3-1.9,0.5-2.6-0.4c-0.7-1-1.1-2-0.8-3.3C15.2,6,16.5,5,18.2,4.5l0,0
				C19.2,4.1,20.1,3.9,21,4c1,0,1.9,0.1,2.8,0.5l0,0c1.7,0.5,3,1.5,3.5,3.3C27.7,9,27.3,10.1,26.6,11.1z"/>
		</defs>
		<clipPath id="SVGID_4_">
			<use xlink:href="#SVGID_3_"  style="overflow:visible;"/>
		</clipPath>
		<path class="st9" d="M1.5,26.1c0,0-0.3-14.6,19.6-14.6s19.5,14.6,19.5,14.6"/>
	</g>
	<g>
		<defs>
			<path id="SVGID_5_" d="M41.1,18.3c-1.5-6.5-5-11.7-10.6-15.4C27.6,1,24.4,0,21,0c-3.4,0-6.6,1-9.4,2.9C6,6.6,2.5,11.8,1,18.3
				c-0.5,2.3-0.2,4.5,1.4,6.4c0.4,0.3,0.8,0.6,1.2,0.9c0.6-0.1,0.8-0.6,0.5-1c-0.4-0.6-0.2-1.1,0.1-1.5c0.4-0.4,0.4-1.2,1.2-1.2
				c1-2,2.8-3.4,4.9-4.3c0.2-0.1,0.3,0,0.4,0.2c0.2-0.7,1-0.8,1.5-0.9c1.4-0.4,2.9-0.6,4.4-0.8c1.5-0.3,2.9-0.3,4.4-0.3
				c1.5,0,3,0,4.4,0.3c1.5,0.1,3,0.4,4.4,0.8c0.5,0.1,1.2,0.3,1.5,0.9c0-0.2,0.1-0.3,0.4-0.2c2.1,0.9,3.8,2.2,4.9,4.3
				c0.9-0.1,0.9,0.7,1.2,1.2c0.4,0.4,0.5,0.9,0.1,1.5c-0.3,0.4-0.1,0.9,0.5,1c0.4-0.3,0.8-0.6,1.2-0.9
				C41.3,22.8,41.6,20.6,41.1,18.3z M26.6,11.1c-0.7,0.9-1.5,1.2-2.6,0.8c-0.1,0-0.2,0-0.2,0c-0.9-0.1-1.8-0.1-2.8-0.1
				c-0.9,0-1.8,0-2.8,0.1c-0.1,0-0.2,0-0.2,0c-1.1,0.3-1.9,0.1-2.6-0.8c-0.7-1-1.1-2-0.8-3.3C15.2,6,16.5,5,18.2,4.5l0,0
				C19.2,4.1,20.1,3.9,21,4c1,0,1.9,0.1,2.8,0.5l0,0c1.7,0.5,3,1.5,3.5,3.3C27.7,9,27.3,10.1,26.6,11.1z"/>
		</defs>
		<clipPath id="SVGID_6_">
			<use xlink:href="#SVGID_5_"  style="overflow:visible;"/>
		</clipPath>
		<path class="st10" d="M3,25.5c0,0-0.3-11.6,18-11.6S39,25.5,39,25.5"/>
	</g>
	<path class="st6" d="M25.8,9.4C25,8,24.2,6.7,23.4,5.2c-0.2-0.4-0.3-0.3-0.5-0.1c-0.5,0.4-1,0.8-1.4,1.2c-0.1,0.1-0.3,0.2-0.4,0.2
		c-0.1,0-0.2-0.1-0.4-0.2c-0.5-0.4-0.9-0.8-1.4-1.2C19,5,18.9,4.9,18.7,5.2c-0.8,1.4-1.6,2.8-2.4,4.2C16,9.8,16,10,16.4,10.2
		c0.5,0.3,1,0.6,1.5,1c0.5-1.3,0.9-2.6,1.4-4c0.6,0.6,1.1,1.1,1.5,1.6C20.9,8.9,21,9,21,9c0.1,0,0.1-0.1,0.2-0.2
		c0.5-0.5,1-1,1.5-1.6c0.5,1.4,0.9,2.7,1.4,4c0.5-0.4,1-0.7,1.5-1C26.1,10,26,9.8,25.8,9.4z"/>
</g>
<g>
	<polygon class="st11" points="72,16 70,16 70,18 67,18 67,16 65,16 65,13 60,13 60,31 65,31 65,24 67,24 67,26 70,26 70,24 72,24 
		72,31 77,31 77,13 72,13 	"/>
	<path class="st11" d="M94,16h-3v-3h-7v3h-3v2h-2v13h5v-5h7v5h5V18h-2V16z M91,23h-7v-5h2v-2h3v2h2V23z"/>
	<path class="st11" d="M113,13H98v18h5v-5h3v2h2v3h7v-3h-2v-2h-3v-3h5v-8h-2V13z M108,21v2h-5v-7h7v5H108z"/>
	<polygon class="st11" points="117,16 122,16 122,28 117,28 117,31 132,31 132,28 127,28 127,16 132,16 132,13 117,13 	"/>
	<path class="st11" d="M149,13h-13v3h-2v12h3v3h12v-3h2V16h-2V13z M146,28h-7V16h7V28z"/>
	<polygon class="st11" points="163,16 160,16 160,18 158,18 158,26 160,26 160,28 163,28 163,31 175,31 175,20 168,20 168,23 
		170,23 170,28 166,28 166,26 163,26 163,18 165,18 165,16 175,16 175,13 163,13 	"/>
	<path class="st11" d="M192,16h-3v-3h-7v3h-3v2h-2v13h5v-5h7v5h5V18h-2V16z M189,23h-7v-5h2v-2h3v2h2V23z"/>
	<polygon class="st11" points="208,16 206,16 206,18 203,18 203,16 201,16 201,13 196,13 196,31 201,31 201,24 203,24 203,26 
		206,26 206,24 208,24 208,31 213,31 213,13 208,13 	"/>
	<polygon class="st11" points="215,31 233,31 233,28 220,28 220,23 228,23 228,20 220,20 220,16 233,16 233,13 215,13 	"/>
	<polygon class="st11" points="249,13 237,13 237,15 235,15 235,20 237,20 237,23 247,23 247,28 240,28 240,25 235,25 235,28 
		238,28 238,31 250,31 250,28 252,28 252,22 250,22 250,20 240,20 240,16 247,16 247,18 252,18 252,15 249,15 	"/>
	<path class="st11" d="M274,13h-13v3h-2v12h3v3h12v-3h2V16h-2V13z M271,28h-7V16h7V28z"/>
	<polygon class="st11" points="290,20 288,20 288,18 285,18 285,16 283,16 283,13 278,13 278,31 283,31 283,24 285,24 285,26 
		288,26 288,28 290,28 290,31 295,31 295,13 290,13 	"/>
	<polygon class="st11" points="302,13 297,13 297,31 312,31 312,28 302,28 	"/>
	<polygon class="st11" points="314,16 319,16 319,28 314,28 314,31 329,31 329,28 324,28 324,16 329,16 329,13 314,13 	"/>
	<polygon class="st11" points="343,20 341,20 341,18 338,18 338,16 336,16 336,13 331,13 331,31 336,31 336,24 338,24 338,26 
		341,26 341,28 343,28 343,31 348,31 348,13 343,13 	"/>
	<polygon class="st11" points="368,16 368,13 350,13 350,31 368,31 368,28 355,28 355,23 363,23 363,20 355,20 355,16 	"/>
</g>
</svg>
